<?xml version="1.0" encoding="UTF-8"?><svg id="Layer_1" xmlns="http://www.w3.org/2000/svg" viewBox="0 0 129.59 109.77"><defs><style>.cls-1{fill:#23b3bc;}.cls-2{fill:#0056d2;}</style></defs><path class="cls-2" d="M81.22,81.71l-13.01,13.06-10.75-10.79v4.31l8.49,8.77-3.84,3.84-10.08-10.52v-19.33s.02,.02,.02,.02v-.23l16,16.15,5.48-5.31-17.83-18.08-7.03,6.87-3.81-3.81-.03,.03c-5.48-4.83-8.95-11.89-8.95-19.76,0-14.52,11.81-26.32,26.32-26.32s26.32,11.81,26.32,26.32c0,7.19-2.9,13.72-7.59,18.47l-3.84-3.84c3.71-3.77,6-8.93,6-14.63,0-11.52-9.37-20.89-20.89-20.89s-20.89,9.37-20.89,20.89c0,6.37,2.87,12.09,7.38,15.91l7.1-6.94,25.43,25.82Z"/><path class="cls-1" d="M66.49,10.37c0,.59-.14,1.14-.39,1.63,0,.02-3.19,4.91-3.19,4.91,0,0-3.11-4.92-3.12-4.94-.24-.48-.38-1.02-.38-1.59s1.58-3.54,3.54-3.54,3.55,1.58,3.55,3.54Z"/><path class="cls-1" d="M92.05,24.28c-.42,.41-.92,.69-1.44,.85-.02,0-5.74,1.14-5.74,1.14,0,0,1.36-5.66,1.37-5.68,.17-.51,.47-.99,.88-1.39,1.4-1.36,3.64-1.33,5.01,.07s1.34,3.65-.06,5.01Z"/><path class="cls-1" d="M33.72,24.28c.42,.41,.92,.69,1.44,.85,.02,0,5.74,1.14,5.74,1.14,0,0-1.36-5.66-1.37-5.68-.17-.51-.47-.99-.88-1.39-1.4-1.36-3.64-1.33-5.01,.07s-1.34,3.65,.06,5.01Z"/></svg>